<?xml version="1.0" standalone="no"?>
<!DOCTYPE svg PUBLIC "-//W3C//DTD SVG 1.1//EN" "http://www.w3.org/Graphics/SVG/1.1/DTD/svg11.dtd" >
<svg xmlns="http://www.w3.org/2000/svg">
<metadata>
Created by FontForge 20120731 at Sun May 14 23:03:30 2017
 By admin
</metadata>
<defs>
<font id="iconfont" horiz-adv-x="1024" >
  <font-face 
    font-family="iconfont"
    font-weight="500"
    font-stretch="normal"
    units-per-em="1024"
    panose-1="2 0 6 3 0 0 0 0 0 0"
    ascent="896"
    descent="-128"
    x-height="792"
    bbox="0 -212 1150 896"
    underline-thickness="0"
    underline-position="0"
    unicode-range="U+0078-E7A6"
  />
<missing-glyph 
 />
    <glyph glyph-name=".notdef" 
 />
    <glyph glyph-name=".notdef" 
 />
    <glyph glyph-name=".null" horiz-adv-x="0" 
 />
    <glyph glyph-name="nonmarkingreturn" horiz-adv-x="341" 
 />
    <glyph glyph-name="x" unicode="x" horiz-adv-x="1001" 
d="M281 543q-27 -1 -53 -1h-83q-18 0 -36.5 -6t-32.5 -18.5t-23 -32t-9 -45.5v-76h912v41q0 16 -0.5 30t-0.5 18q0 13 -5 29t-17 29.5t-31.5 22.5t-49.5 9h-133v-97h-438v97zM955 310v-52q0 -23 0.5 -52t0.5 -58t-10.5 -47.5t-26 -30t-33 -16t-31.5 -4.5q-14 -1 -29.5 -0.5
t-29.5 0.5h-32l-45 128h-439l-44 -128h-29h-34q-20 0 -45 1q-25 0 -41 9.5t-25.5 23t-13.5 29.5t-4 30v167h911zM163 247q-12 0 -21 -8.5t-9 -21.5t9 -21.5t21 -8.5q13 0 22 8.5t9 21.5t-9 21.5t-22 8.5zM316 123q-8 -26 -14 -48q-5 -19 -10.5 -37t-7.5 -25t-3 -15t1 -14.5
t9.5 -10.5t21.5 -4h37h67h81h80h64h36q23 0 34 12t2 38q-5 13 -9.5 30.5t-9.5 34.5q-5 19 -11 39h-368zM336 498v228q0 11 2.5 23t10 21.5t20.5 15.5t34 6h188q31 0 51.5 -14.5t20.5 -52.5v-227h-327z" />
    <glyph glyph-name="weixin" unicode="&#xe61f;" horiz-adv-x="1000" 
d="M676 460q15 0 34 -2q-23 106 -124 176t-231 70q-95 0 -176 -39.5t-128 -108t-47 -150.5q0 -139 140 -238l-35 -105l123 61q89 -17 123 -17q15 0 33 1q-11 37 -11 74q0 115 87 196.5t212 81.5zM487 555q20 0 32 -12t12 -32t-12 -32t-32 -12q-21 0 -37 12.5t-16 31.5
t16 31.5t37 12.5zM241 467q-21 0 -37 12.5t-16 31.5t16 31.5t37 12.5q20 0 32 -12t12 -32t-12 -32t-32 -12zM996 186q0 68 -41.5 127.5t-110 93.5t-146.5 34q-125 0 -212 -74.5t-87 -180.5t87 -180.5t212 -74.5q35 0 105 17l97 -52l-27 88q123 92 123 202zM601 230
q-13 0 -24 11t-11 24t11 24t24 11q19 0 31.5 -10.5t12.5 -24.5t-12.5 -24.5t-31.5 -10.5zM794 230q-13 0 -24 11t-11 24t11 24t24 11q19 0 31.5 -10.5t12.5 -24.5t-12.5 -24.5t-31.5 -10.5z" />
    <glyph glyph-name="shanchu" unicode="&#xe619;" 
d="M344.5 105q11.5 0 19.5 8t8 20v306q0 12 -8 20t-19.5 8t-19.5 -8t-8 -20v-306q0 -12 8 -20t19.5 -8zM511.5 105q11.5 0 20 8t8.5 20v306q0 12 -8.5 20t-20 8t-19.5 -8t-8 -20v-306q0 -12 8 -20t19.5 -8zM679.5 105q11.5 0 19.5 8t8 20v306q0 12 -8 20t-19.5 8t-20 -8
t-8.5 -20v-306q0 -12 8.5 -20t20 -8zM819 746h-116q-9 37 -39 60.5t-68 23.5h-168q-38 0 -68 -23.5t-39 -60.5h-116q-46 0 -79 -32.5t-33 -78.5v-28h28v-28h56v-530q0 -46 32.5 -79t79.5 -33h446q46 0 79 33t33 79v530h55v28h28v28q0 46 -32.5 78.5t-78.5 32.5zM428 774h168
q31 0 48 -28h-264q16 28 48 28zM791 49q0 -23 -16.5 -39.5t-39.5 -16.5h-446q-24 0 -42 16.5t-18 39.5l4 530h558v-530zM149 635q0 23 16.5 39.5t39.5 16.5h614q23 0 39.5 -16.5t16.5 -39.5h-726z" />
    <glyph glyph-name="dianhua" unicode="&#xe61a;" 
d="M605 729q-3 0 -6 1q-15 0 -26.5 -9t-14.5 -24q-4 -16 5.5 -30t25.5 -17q64 -13 117 -49t89 -91q74 -112 47 -244q-4 -16 5.5 -30t25.5 -17q3 -1 7 -1q12 -1 23 6q14 10 18 26q22 108 -12.5 210t-115 174.5t-188.5 94.5v0zM675 123q57 -37 96 -77q41 -43 41 -74
q-1 -31 -37 -64q-8 -8 -21 -18t-49 -24t-74 -14q-35 0 -71 11q-38 12 -76 35q-75 44 -135 103t-114 143q-44 66 -73 134t-39.5 121t-13.5 81.5t-3 48.5q0 40 13 75t29.5 56t38 39t32.5 24t19 10q28 12 50 12q11 0 21 -3q28 -8 43 -40q26 -57 43 -141q2 -12 2 -22t-1.5 -17
t-6 -13.5t-8.5 -11t-11.5 -9t-12 -7t-12.5 -6.5l-1 -1q-54 -22 -63 -26q-7 -3 -10.5 -10t-0.5 -14q33 -100 95 -196q61 -94 138 -165q5 -5 13 -5h1q9 1 14 7q17 23 34 38q37 36 69 36q8 0 16.5 -2.5t24.5 -13.5v0zM505 398q-16 4 -25 18t-6 30q3 15 14.5 24t26.5 8q3 0 7 -1
q70 -14 109.5 -74t24.5 -130q-3 -17 -17 -26q-11 -7 -24 -7q-3 1 -6 1q-17 4 -26 17.5t-6 30.5q8 37 -13 69.5t-59 39.5v0zM547 525q-16 3 -25 17t-6 30q3 15 14.5 24t26.5 8h7q117 -25 183 -125t42 -218q-3 -16 -17 -25q-11 -8 -24 -7q-3 0 -7 1q-16 3 -25 17t-6 30
q18 85 -30 157.5t-133 90.5z" />
    <glyph glyph-name="huiyuanqia" unicode="&#xe64e;" 
d="M66 520v91q11 33 43 46h805q40 -15 43 -46v-93h-18h-855q-1 0 -18 2zM939 434h-855h-18v-451q12 -31 25.5 -40.5t46.5 -9.5h750q38 0 54 16.5t16 53.5v411v20h-19zM428 74h-305v54h305v-54zM483 213h-359v53h359v-53zM595 213h-81v53h81v-53z" />
    <glyph glyph-name="left" unicode="&#xe628;" 
d="M671 87q-9 0 -15 6l-287 293q-6 6 -6 14.5t6 14.5l287 293q6 6 14.5 6t14.5 -6t6.5 -14.5t-5.5 -14.5l-274 -279l274 -278q6 -6 5.5 -14.5t-6.5 -14.5t-14 -6z" />
    <glyph glyph-name="right" unicode="&#xe600;" 
d="M383 87q-8 0 -14 6t-6 14.5t6 14.5l273 278l-273 279q-6 6 -6 14.5t6 14.5t14.5 6t14.5 -6l288 -293q5 -6 5 -14.5t-5 -14.5l-288 -293q-6 -6 -15 -6z" />
    <glyph glyph-name="jian" unicode="&#xe610;" 
d="M678 278h-334q-9 0 -16 6.5t-7 16t7 16.5t16 7h334q10 0 16.5 -7t6.5 -16.5t-6.5 -16t-16.5 -6.5zM511 -147q-91 0 -174 35.5t-143 95.5t-95.5 143t-35.5 174t35.5 174t95.5 143t143 95.5t174 35.5t174 -35.5t143 -95.5t96 -143t36 -174t-36 -174t-96 -143t-143 -95.5
t-174 -35.5zM511 703q-109 0 -201.5 -54t-146.5 -146.5t-54 -201.5t54 -201.5t146.5 -146.5t201.5 -54t202 54t146.5 146.5t53.5 201.5t-53.5 201.5t-146.5 146.5t-202 54z" />
    <glyph glyph-name="jikediancanicon09" unicode="&#xe60f;" 
d="M511.5 754q-92.5 0 -176.5 -36t-145 -97t-97.5 -145t-36.5 -176.5t36.5 -177t97.5 -145.5t145 -97t176.5 -36t177 36t145.5 97t97 145.5t36 177t-36 176.5t-97 145t-145.5 97t-177 36zM511.5 -108q-110.5 0 -204.5 54.5t-148.5 148.5t-54.5 204.5t54.5 204t148.5 148
t204.5 54.5t204.5 -54.5t148.5 -148t54.5 -204t-54.5 -204.5t-148.5 -148.5t-204.5 -54.5zM683 332h-139v139q0 9 -10.5 16.5t-21.5 7.5t-21.5 -7.5t-10.5 -16.5v-139h-140q-10 0 -17 -10.5t-7 -21.5t7 -21.5t17 -10.5h140v-140q0 -10 10.5 -17t21.5 -7t21.5 7t10.5 17v140
h139q10 0 17 10.5t7 21.5t-7 21.5t-17 10.5z" />
    <glyph glyph-name="212102" unicode="&#xe613;" 
d="M512 21q-8 0 -15 3l-410 181q-15 6 -20.5 21t1 29.5t21 20t29.5 -0.5l394 -174l394 174q15 6 29.5 0.5t21 -20t1 -29.5t-20.5 -21l-409 -181q-8 -3 -16 -3zM512 322q-8 0 -15 3l-410 181q-15 6 -20.5 21t1 29.5t21 20t29.5 -0.5l394 -174l394 174q15 7 29.5 1t21 -20.5
t1 -29.5t-20.5 -21l-409 -181q-8 -3 -16 -3z" />
    <glyph glyph-name="pinglun" unicode="&#xe655;" 
d="M512 -36q-41 0 -84 7l-197 -119v199q-78 55 -123 135t-45 171q0 107 60 197.5t163.5 143t225.5 52.5t225.5 -52.5t163.5 -143t60 -197.5t-60 -197.5t-163.5 -143t-225.5 -52.5zM512 694q-107 0 -197.5 -45t-143 -122.5t-52.5 -169.5q0 -84 45 -156.5t123 -119.5l-2 -130
l132 80q48 -11 95 -11q107 0 197.5 45t143 123t52.5 169.5t-52.5 169t-143 122.5t-197.5 45zM736.5 301q-23.5 0 -40 16.5t-16.5 39.5t16.5 39.5t40 16.5t40 -16.5t16.5 -39.5t-16.5 -39.5t-40 -16.5zM512 301q-23 0 -39.5 16.5t-16.5 39.5t16.5 39.5t39.5 16.5t39.5 -16.5
t16.5 -39.5t-16.5 -39.5t-39.5 -16.5zM287.5 301q-23.5 0 -40 16.5t-16.5 39.5t16.5 39.5t40 16.5t40 -16.5t16.5 -39.5t-16.5 -39.5t-40 -16.5z" />
    <glyph glyph-name="daishouhuo" unicode="&#xe601;" 
d="M904 -147h-784q-23 0 -39.5 16.5t-16.5 39.5v553q0 23 4 35l62 203q5 18 20.5 30t32.5 12h658q17 0 32.5 -12t20.5 -30l62 -203q4 -12 4 -35v-553q0 -23 -16.5 -39.5t-39.5 -16.5zM183 710q-7 0 -14 -6t-9 -13l-62 -203q-2 -8 -2 -26v-553q0 -10 7 -17t17 -7h784
q10 0 17 7t7 17v553q0 18 -2 26l-62 203q-2 7 -9 13t-14 6h-658zM955 452q0 -1 -2 -1h-874q-2 0 -2 1v29q0 1 2 1h874q2 0 2 -1v-29zM861 215q0 -7 -4.5 -11.5t-10.5 -4.5h-318q-7 0 -11.5 4.5t-4.5 11.5v0q0 6 4.5 10.5t11.5 4.5h318q6 0 10.5 -4.5t4.5 -10.5v0zM861 94
q0 -7 -4.5 -11.5t-10.5 -4.5h-217q-7 0 -11.5 4.5t-4.5 11.5v0q0 6 4.5 10.5t11.5 4.5h217q6 0 10.5 -4.5t4.5 -10.5v0z" />
    <glyph glyph-name="daifukuan" unicode="&#xe602;" 
d="M895 -120h-766q-25 0 -44 13q-20 15 -20 37v556q0 22 20 37q19 13 44 13h766q25 0 44 -13q20 -15 20 -37v-556q0 -22 -20 -37q-19 -13 -44 -13zM129 505q-14 0 -23.5 -6t-9.5 -13v-556q0 -7 9.5 -13t23.5 -6h766q14 0 23.5 6t9.5 13v556q0 7 -9.5 13t-23.5 6h-766z
M750 119h71v-72h-71v72zM192 305h558v-31h-558v31zM895 -120h-766q-25 0 -44 13q-20 15 -20 37v747q0 18 12.5 30.5t30.5 12.5h642q18 0 30.5 -12.5t12.5 -30.5v-141h102q25 0 44 -13q20 -15 20 -37v-556q0 -22 -20 -37q-19 -13 -44 -13zM108 689q-5 0 -8.5 -3.5t-3.5 -8.5
v-747q0 -7 9.5 -13t23.5 -6h766q14 0 23.5 6t9.5 13v556q0 7 -9.5 13t-23.5 6h-133v172q0 5 -3.5 8.5t-8.5 3.5h-642z" />
    <glyph glyph-name="dizhi" unicode="&#xe649;" 
d="M513.5 799q-102.5 0 -189 -50t-137 -135.5t-50.5 -186.5q0 -57 39 -142t94 -165.5t110.5 -152t94 -116.5t38.5 -44q16 17 41 46t90 112t114.5 156.5t90.5 161t41 144.5q0 101 -50.5 186.5t-137 135.5t-189 50zM513.5 179q-103.5 0 -177 72.5t-73.5 175.5t73.5 175.5
t177 72.5t177 -72.5t73.5 -175.5t-73.5 -175.5t-177 -72.5zM513 551q-52 0 -88.5 -36.5t-36.5 -87.5t36.5 -87.5t88.5 -36.5t89 36.5t37 87.5t-37 87.5t-89 36.5z" />
    <glyph glyph-name="guanbi" unicode="&#xe6b4;" 
d="M512 -212q-139 0 -257 68.5t-186.5 186.5t-68.5 257t68.5 257t186.5 186.5t257 68.5t257 -68.5t186.5 -186.5t68.5 -257t-68.5 -257t-186.5 -186.5t-257 -68.5zM512 761q-94 0 -179 -36.5t-147 -98.5t-98.5 -147t-36.5 -179t36.5 -179t98.5 -147t147 -98.5t179 -36.5
t179 36.5t147 98.5t98.5 147t36.5 179t-36.5 179t-98.5 147t-147 98.5t-179 36.5zM711 65l-199 199l-199 -199l-36 36l199 199l-199 199l36 36l199 -199l199 199l36 -36l-199 -199l199 -199z" />
    <glyph glyph-name="liwu" unicode="&#xe7a6;" 
d="M682 680v0q20 0 30 -9q8 -10 8 -22q0 -32 -32 -63q-22 -20 -54.5 -33.5t-58.5 -13.5q-4 0 -8 0.5t-6 1l-2 0.5v0q-5 11 8 46.5t41 60.5q33 32 74 32zM682 747q-67 0 -119 -50q-48 -45 -65 -107t16 -97q21 -20 61 -20q39 0 83 18t75 47q45 42 52 95.5t-28 85.5
q-29 28 -75 28zM342 680q40 0 74 -32q28 -25 41.5 -60.5t7.5 -46.5q-4 -2 -16 -2q-26 0 -58.5 13.5t-54.5 33.5q-32 31 -32 63q0 14 9 22q10 9 29 9zM342 747q-46 0 -75 -28q-35 -32 -28 -85.5t52 -95.5q31 -29 75 -47t83 -18q40 0 61 20q33 35 16 97t-65 107
q-53 50 -119 50zM903 212v228q0 27 -19 46t-46 19h-294v-293h359v0zM544 147v-294h294q27 0 46 19.5t19 46.5v228h-359v0zM480 212v293h-294q-27 0 -46 -19t-19 -46v-228h359v0zM121 147v-228q0 -27 19 -46.5t46 -19.5h294v294h-359v0zM121 147z" />
    <glyph glyph-name="dingdan" unicode="&#xe66f;" 
d="M800 -187h-581q-42 0 -88.5 43t-46.5 92v549q0 46 38.5 90.5t84.5 44.5h73v-130h458v130h65q49 0 90.5 -39.5t41.5 -95.5v-553q0 -57 -42 -94t-93 -37v0v0zM772 354q0 7 -5 11.5t-12 4.5h-491q-7 0 -11.5 -4.5t-4.5 -11.5v-33q0 -7 4.5 -11.5t11.5 -4.5h491q7 0 12 4.5
t5 11.5v33v0zM772 190q0 7 -5 11.5t-12 4.5h-491q-7 0 -11.5 -4.5t-4.5 -11.5v-33q0 -6 4.5 -11t11.5 -5h491q7 0 12 5t5 11v33v0zM772 26q0 7 -5 12t-12 5h-491q-7 0 -11.5 -5t-4.5 -12v-32q0 -7 4.5 -12t11.5 -5h491q7 0 12 5t5 12v32v0zM476 567h-130v131h65q0 27 19 46
t46 19h66q27 0 46 -19t19 -46h66v-131h-197v0zM509 708q-17 0 -29 -12t-12 -29t12 -29t29 -12t29 12t12 29t-12 29t-29 12v0v0z" />
    <glyph glyph-name="qianggou" unicode="&#xe617;" 
d="M512 710q-111 0 -205.5 -55t-149.5 -149.5t-55 -205.5t55 -205.5t149.5 -149.5t205.5 -55t205.5 55t149.5 149.5t55 205.5t-55 205.5t-149.5 149.5t-205.5 55zM512 -88q-105 0 -194.5 52t-141.5 141.5t-52 194.5t52 194.5t141.5 141.5t194.5 52t194.5 -52t141.5 -141.5
t52 -194.5t-52 -194.5t-141.5 -141.5t-194.5 -52zM664 440q-26 31 -53 81l5 7l-33 13q-36 -75 -69 -114t-88 -71q10 -10 21 -28q41 31 56 44t34 35q28 32 58 84q1 -2 4 -7t4 -7l8 -14q16 -28 45 -61q20 -22 35 -35t54 -39q6 13 22 29q-40 23 -60 39.5t-43 43.5zM394 402h20
q19 0 34 -2v33q-14 -2 -34 -2h-20v49q0 29 4 50h-39q3 -24 3 -51v-48h-31q-22 0 -38 3v-34q15 2 38 2h31v-112q-46 -16 -74 -20l9 -35q9 4 21 8q31 9 44 15v-136q0 -9 -3.5 -11.5t-14.5 -2.5q-18 0 -43 3q6 -13 7 -32q24 -1 29 -1q34 0 45.5 7.5t11.5 28.5v155q34 14 53 22
l2 32q-28 -13 -55 -22v101zM691 126q-7 -7 -21 -9t-55 -2q-64 0 -77 3t-13 18v192h132q0 -45 -4 -71q-3 -17 -7.5 -22t-16.5 -5q-16 0 -40 5q5 -17 5 -31q22 -3 36 -3q38 0 47 19q10 22 12 96q1 26 2 42q-16 -2 -39 -2h-124q-21 0 -35 2q1 -19 1 -41v-190q0 -28 18 -35.5
t84 -7.5q74 0 95 5q19 4 30 17q14 17 18 71q-16 4 -32 14q-2 -32 -5 -45t-11 -20z" />
    <glyph glyph-name="weixinzhifu" unicode="&#xe616;" 
d="M316 492q-15 0 -27.5 -9t-12.5 -23.5t12.5 -24t27.5 -9.5t24 9t9 24t-9 24t-24 9v0v0zM502 426q15 0 24 9t9 24t-9 24.5t-24 9.5q-16 0 -28 -9.5t-12 -24t12 -24t28 -9.5v0v0zM588 300q-10 0 -18 -8.5t-8 -18t8 -18t18 -8.5q15 0 24 8t9 18.5t-9 18.5t-24 8v0v0zM734 300
q-10 0 -18 -8.5t-8 -18t8 -18t18 -8.5q15 0 24 8t9 18.5t-9.5 18.5t-23.5 8v0v0zM827 812h-630q-81 0 -139 -58t-58 -139v-630q0 -81 58 -139t139 -58h630q72 0 126.5 46.5t67.5 115.5l3 161v504q0 81 -58 139t-139 58v0v0zM403 154q-27 0 -93 13l-93 -46l26 80
q-106 74 -106 179q0 94 78 159.5t188 65.5q97 0 173.5 -53t93.5 -133q-13 2 -25 2q-95 0 -160.5 -61.5t-65.5 -148.5q0 -28 8 -56q-14 -1 -24 -1v0v0zM794 61l20 -66l-73 40q-53 -14 -80 -14q-94 0 -159.5 56.5t-65.5 136.5t65.5 136t159.5 56q91 0 158.5 -56.5t67.5 -135.5
q0 -83 -93 -153v0v0zM794 61z" />
    <glyph glyph-name="map" unicode="&#xe603;" 
d="M452 -98q20 -23 49.5 -23t49.5 23q5 5 15 16q19 21 39 45q64 76 117 150q58 81 97 152q77 137 77 229q0 109 -53 201.5t-143.5 146.5t-198 54t-198.5 -54t-143.5 -146.5t-52.5 -201.5q0 -92 77 -230q39 -70 97 -151q53 -74 117 -150q20 -24 39 -45q10 -11 15 -17v1z
M487 -65q-5 5 -14 16q-19 20 -38 43q-63 75 -116 148q-56 78 -94 146q-70 127 -70 206q0 96 46 177.5t126 128.5t174.5 47t174 -47t126 -128.5t46.5 -177.5q0 -79 -70 -205q-38 -68 -94 -147q-53 -73 -116 -147q-19 -24 -38 -44q-9 -10 -14 -16q-6 -7 -14.5 -7.5t-14.5 6.5
v1zM715 429q14 37 14 77q0 91 -63.5 155t-152.5 64t-152 -64t-63 -155t63 -155.5t152 -64.5q54 0 101 26q9 5 12 14.5t-1.5 18.5t-14 12t-18.5 -2q-37 -20 -79 -20q-69 0 -118 50t-49 121t49 121t118.5 50t118.5 -50t49 -121q0 -31 -11 -60q-3 -9 1 -18.5t13 -13t18 1
t13 13.5v0z" />
    <glyph glyph-name="daifahuo" unicode="&#xe604;" horiz-adv-x="1035" 
d="M946 750h-846q-37 0 -63 -26t-26 -63v-156q1 -36 27 -61t62 -25v-515q0 -37 26 -63t63 -26h668q37 0 63 26t26 63v401q0 9 -6.5 15.5t-16 6.5t-16 -6.5t-6.5 -15.5v-401q0 -19 -13 -32t-31 -13h-668q-19 0 -32 13t-13 32v515h802q36 0 62 24.5t27 60.5v157q0 37 -26 63
t-63 26zM990 508q0 -19 -13 -32t-31 -13h-846q-19 0 -32 13t-13 32v153q0 18 13 31.5t32 13.5h267v-1h45v1h222v-1h45v1h267q18 0 31 -13.5t13 -31.5v-153zM278 327q-9 0 -15.5 -6.5t-6.5 -16t6.5 -16t15.5 -6.5h490q9 0 15.5 6.5t6.5 16t-6.5 16t-15.5 6.5h-490z" />
    <glyph glyph-name="edit" unicode="&#xe609;" 
d="M819 8h-614q-28 0 -48 20t-20 49v614q0 28 20 48t48 20h409q7 0 12 -3t8 -8t3 -12q0 -4 -1.5 -8.5t-5 -7.5t-7.5 -4.5t-9 -1.5h-386q-10 0 -18.5 -4t-14.5 -10t-9.5 -14.5t-3.5 -17.5v-569q0 -19 13.5 -32t32.5 -13h568q19 0 32.5 13t13.5 32v410q0 9 6.5 16t16.5 7
q6 0 11 -3t8 -8.5t3 -11.5v-432q0 -29 -20 -49t-48 -20v0zM448 310q-7 -7 -16.5 -7t-16 6.5t-6.5 16t6 16.5l409 411q7 7 16.5 7t16 -7t6.5 -16t-6 -16z" />
    <glyph glyph-name="youhuiquan" unicode="&#xe65e;" 
d="M3 635q0 35 12 51q12 15 52 15h174v-634h-77q-35 0 -59 1h-38q-35 -1 -49.5 12.5t-14.5 49.5v192q0 14 4.5 21.5t19.5 10.5q5 0 14 3q9 5 18 13q9 9 15 22q7 14 7 34q0 30 -16 47q-17 18 -35 20q-14 2 -20.5 8.5t-6.5 20.5v139v0v-26v0zM997 521q-15 -4 -24 -15
q-8 -12 -9 -24q-1 -11 6 -23q8 -12 22 -17q13 -6 19 -16q6 -11 7 -23q1 -11 -4.5 -22t-15.5 -16q-32 -16 -33 -38q-2 -22 24 -35q12 -6 19 -17t7 -23q1 -13 -4 -23q-5 -9 -17 -14q-15 -4 -24 -14q-8 -10 -8.5 -22t6.5 -24q9 -15 22 -22q10 -5 15 -17q5 -11 3 -21
q-1 -11 -7 -19q-5 -9 -16 -9h-665v634h673q10 0 16 -9q6 -8 6 -19q1 -2 0 1q-2 9 -4 4q-5 -10 -16.5 -14t-19.5 -13q-7 -9 -8 -21q-1 -11 5 -21q7 -11 22 -16q12 -6 19 -16q7 -11 8 -21q0 -11 -6 -22q-5 -10 -18 -13v0v0zM686 432q-6 0 -13 2q-7 1 -4 8q10 15 13 18l24 34
q3 3 12 15t13 18q13 17 14 20q7 10 -7 25q-3 2 -11 8q-7 5 -14 8q-10 3 -15 1q-4 -3 -10 -12q-9 -13 -13 -19q-4 -5 -22 -32q-10 -14 -22 -31q-9 -14 -10 -17q-3 -5 -10 -3.5t-10 6.5q-2 4 -11 15q-12 14 -22 28q-7 10 -23 30q-10 13 -15 19q-11 22 -24 15q-9 -6 -16 -12
l-14 -10q-13 -9 -4 -23q23 -28 39 -49q19 -24 27 -35l15 -20q3 -5 -5 -5h-15q-8 0 -19 -1q-13 -1 -22 1q-11 0 -17 -6q-7 -5 -4 -13q1 -5 1 -15v-16q0 -7 4 -7q4 -1 9 -1h75q15 0 15 -7v-24q0 -7 -2 -7h-7h-13h-25h-26h-16q-7 1 -10 -4q-2 -5 -3.5 -12t-0.5 -12t1 -10
q0 -17 17 -17h78q6 0 7 -2q2 -2 2 -9q1 -7 0 -23v-23q0 -14 16 -14h42q10 0 10 6v9v44q0 13 11 13h12q11 0 20 1h21h17q18 0 18 13v29q0 12 -13 12h-75q-12 -3 -12 6q0 4 -1 9t-1 11t5 8q4 3 9 3h77q12 0 12 9v32q0 5 -4 10t-11 5h-44v0v0zM686 432z" />
    <glyph glyph-name="dingwei" unicode="&#xe60e;" 
d="M927 416h-83q-11 119 -96 204t-204 96v84q0 13 -9.5 22.5t-22.5 9.5t-22.5 -9.5t-9.5 -22.5v-84q-119 -11 -204 -96t-96 -204h-84q-13 0 -22.5 -9.5t-9.5 -22.5t9.5 -22.5t22.5 -9.5h84q11 -119 96 -203.5t204 -96.5v-84q0 -13 9.5 -22.5t22.5 -9.5t22.5 9.5t9.5 22.5v84
q119 12 204 96.5t96 203.5h83q13 0 22.5 9.5t9.5 22.5t-9.5 22.5t-22.5 9.5zM511.5 103q-116.5 0 -199 82.5t-82.5 199t82.5 199t199 82.5t199 -82.5t82.5 -199t-82.5 -199t-199 -82.5zM512 384zM442 384q0 29 20.5 49.5t49.5 20.5t49 -20.5t20 -49.5t-20 -49t-49 -20
t-49.5 20t-20.5 49z" />
    <glyph glyph-name="zhuyishixiang" unicode="&#xe637;" 
d="M456 530h93v-387h-93v387v0zM502 665q20 0 33.5 -13.5t13.5 -33t-13.5 -33t-33 -13.5t-33 13.5t-13.5 33t13.5 33t32.5 13.5v0zM502 845q-92 0 -175.5 -36t-143.5 -96t-96 -143.5t-36 -175.5t36 -175.5t96 -144t143.5 -96t175.5 -35.5t175.5 35.5t144 96t96 144
t35.5 175.5t-35.5 175.5t-96 143.5t-144 96t-175.5 36v0z" />
    <glyph glyph-name="iconfontcheck" unicode="&#xe62f;" 
d="M888 598q-10 9 -23 8.5t-22 -10.5l-427 -454l-233 230q-10 9 -23 9t-22.5 -9.5t-9.5 -23t10 -22.5l256 -253h1v0q1 -1 7 -4q0 -1 1 -1.5t2 -1.5q6 -2 12 -2t12 3q1 0 2 1t2 1q5 3 7 5v0v0l449 479q9 9 9 22.5t-10 22.5z" />
    <glyph glyph-name="yishoukong01" unicode="&#xe612;" 
d="M357 617l16 14l22 -2l-8 19l8 19l-22 -1l-16 13l-5 -20l-19 -11l19 -11zM658 640l15 -15l6 20l19 9l-17 13l-4 21l-17 -12l-21 4l7 -21l-9 -18zM489 664l21 6l19 -10v21l15 14l-21 7l-10 19l-12 -16l-21 -3l12 -17zM266 540l15 -15l7 20l20 10l-17 12l-3 21l-18 -13
l-21 4l6 -20l-10 -19h21zM672 134l-17 -13l-21 1l8 -19l-8 -19l21 2l17 -14l5 20l18 11l-18 11zM541 97l-21 -5l-19 10v-21l-15 -14l21 -7l9 -19l13 16l21 3l-13 17zM382 121l-15 15l-6 -20l-19 -9l17 -13l4 -20l17 11l21 -4l-7 21l9 18zM512 832q-91 0 -174 -35.5
t-143 -95.5t-95.5 -143t-35.5 -174t35.5 -174t95.5 -143t143 -95.5t174 -35.5t174 35.5t143 95.5t95.5 143t35.5 174t-35.5 174t-95.5 143t-143 95.5t-174 35.5zM512 -34q-113 0 -209.5 56t-152.5 152.5t-56 209.5t56 209.5t152.5 152.5t209.5 56t209.5 -56t152.5 -152.5
t56 -209.5t-56 -209.5t-152.5 -152.5t-209.5 -56zM512 760q-102 0 -188.5 -50.5t-137 -137t-50.5 -188.5t50.5 -188.5t137 -137t188.5 -50.5t188.5 50.5t137 137t50.5 188.5t-50.5 188.5t-137 137t-188.5 50.5zM791 222l-16 14l-5 -21l-19 -11l17 -11l4 -20l17 14l21 -2
q-49 -74 -128 -117t-170 -43q-97 0 -179.5 48.5t-131 131t-48.5 179.5t48.5 179.5t131 131t179.5 48.5t179.5 -48.5t131 -131t48.5 -179.5q0 -109 -61 -199l-7 19l9 20zM660 564q-65 53 -148 53q-84 0 -148.5 -53.5t-80.5 -135.5l15 -3q15 77 75.5 127t138.5 50t138 -49z
M512 166q-78 0 -138 49l-10 -11q65 -53 148 -53q84 0 148.5 53.5t80.5 135.5l-15 3q-15 -77 -75.5 -127t-138.5 -50zM437 270q7 15 -9 47q0 1 -1 2q-3 1 -5 1q-6 0 -8 -6q0 -2 1 -3q12 -25 8 -34q-2 -4 -8 -5v0l-91 -39h-1q-2 -1 -3 -1q-4 0 -6 6l-20 47l89 38q10 4 13 11
t-2 15l-16 40q-4 11 -14 11q-4 0 -8 -2l-104 -44l-2 -2q-2 -4 -0.5 -7.5t6.5 -4.5h2l101 43q2 1 3 1q2 0 3 -3v-1l15 -35v-1q2 -3 1 -4q0 -2 -5 -3v-1l-88 -37l-5 12l-1 1q-4 3 -7 3q-6 0 -6 -9v-1l33 -77v0q6 -12 16 -12q5 0 9 2l95 40q11 3 15 12zM560 407q3 4 1.5 7.5
t-6.5 4.5h-2l-47 -20l-3 7l47 20l2 2q2 4 0.5 7.5t-6.5 4.5h-2l-47 -20l-4 8l54 23q1 0 1 1q3 5 1.5 8.5t-6.5 4.5h-2l-52 -23q-9 9 -18 13q-1 1 -2 1q-6 -1 -8 -5q-2 -3 2 -9q0 -1 1 -2q4 -1 9 -4l-25 -11l1 10v2q-3 5 -7 5q-5 0 -8 -6v-1q-2 -34 -12 -58q-1 -1 -1 -2
q2 -8 8 -8q2 0 5 1q1 1 1 2q3 5 4 10l21 -48q0 -1 2 -2l1 -1q-5 -6 -1 -16l7 -18q5 -11 14 -11q4 0 9 3l90 38q9 3 11.5 9t-2.5 13l-7 17q-3 11 -13 11q-4 0 -9 -2l-88 -37q0 1 -1 2l-1 3l105 44l2 2q2 4 1 7.5t-6 4.5q-1 1 -3 0l-55 -24l-5 10l48 20q1 1 1 2zM476.5 319.5
q0.5 1.5 2.5 2.5l86 37h4q2 0 2 -2v-1l6 -12v-1q1 -2 1 -3t-3 -2h-1l-86 -37v0q-2 -1 -3 -1t-3 4l-5 12q-1 2 -0.5 3.5zM446 403v5l33 14l4 -8l-36 -15zM456 378l-3 7l36 15l3 -7zM466 355l-4 9l36 15l4 -9zM758 415q-1 1 -1 0l-64 -27l-16 38l55 24q1 0 1 1q3 4 1.5 7.5
t-6.5 4.5q-1 1 -2 0l-6 -2q2 1 2 3q1 4 -4 8q0 1 -1 1q-4 2 -9 4q4 0 8 5v2q4 16 -1 30q-3 13 -13 13q-4 0 -9 -2l-49 -21q-7 7 -17 12h-1.5h-1.5q-6 0 -8 -3t0 -9q1 -1 2 -1q4 -3 9 -6l-46 -20q-8 -3 -11 -9t0 -13l11 -25q0 -1 1 -2q3 -1 5 -1q6 0 8 7v2l-10 23q-1 2 -1 3
q1 1 4 2l31 13l-3 -3v-1q-7 -25 -24 -53v-1q-1 -5 1 -7t5 -2q2 0 5 1q1 0 1 1q18 24 26 58v2q-2 7 -6 7h-1l25 11q-1 -4 1 -8q0 -1 2 -2q32 -10 61 -22h2l-109 -46q-1 0 -1 -1q-4 -5 -2.5 -8.5t7.5 -4.5h2l52 22l16 -38l-60 -25l-2 -2q-3 -4 -1.5 -7.5t6.5 -4.5h1h1l138 58
l2 2q3 4 1.5 8t-7.5 4zM658 494l39 16q1 1 1.5 1t1.5 -1q3 -4 1 -26v-2q1 -2 2 -3q-22 9 -45 15z" />
    <glyph glyph-name="gouwuche" unicode="&#xe605;" 
d="M246 -16q0 28 20 47.5t47.5 19.5t47.5 -19.5t20 -47.5t-20 -47.5t-47.5 -19.5t-47.5 19.5t-20 47.5zM717 -16q0 28 19.5 47.5t47.5 19.5t47.5 -19.5t19.5 -47.5t-19.5 -47.5t-47.5 -19.5t-47.5 19.5t-19.5 47.5zM906 131h-538q-21 0 -40 16.5t-24 38.5l-96 566
q-7 41 -40.5 68.5t-74.5 27.5h-23q-9 0 -17 -8t-8 -17.5t8 -17.5t17 -8h23q21 0 40 -16.5t24 -38.5l96 -566q7 -41 40.5 -68.5t74.5 -27.5h538q9 0 17 8t8 18t-7 17.5t-18 7.5zM880 717h-573q-9 0 -17 -8t-8 -17.5t8 -17.5t17 -8h573q19 0 28 -11.5t4 -30.5l-70 -282
q-5 -23 -27 -40.5t-47 -19.5l-397 -29q-10 0 -17.5 -8.5t-4.5 -20.5q0 -10 8.5 -17.5t20.5 -4.5l396 28q41 3 75 32t44 68l70 281q10 41 -15 73.5t-68 32.5z" />
    <glyph glyph-name="gouwuchetianjia" unicode="&#xe606;" 
d="M803 0zM739 0q0 26 19 45t45.5 19t45 -19t18.5 -45t-18.5 -45t-45 -19t-45.5 19t-19 45zM346 0zM282 0q0 26 18.5 45t45 19t45.5 -19t19 -45t-19 -45t-45.5 -19t-45 19t-18.5 45zM774 778q-81 0 -139.5 -58.5t-58.5 -140t58.5 -140t140 -58.5t140 58.5t58.5 139.5
q2 82 -56.5 140.5t-142.5 58.5zM774 432q-62 0 -106 43.5t-44 103.5q0 62 44 104.5t106 42.5q63 0 107 -43.5t44 -103.5q0 -62 -44 -104.5t-107 -42.5zM368 246q0 -9 8 -15.5t18 -6.5l492 42q10 0 16.5 7.5t6.5 17.5t-8 16.5t-18 6.5l-493 -42q-10 0 -17 -7t-5 -19zM845 605
h-48v48q0 10 -7 17.5t-19 7.5q-25 0 -25 -25v-48h-48q-11 0 -18.5 -7t-7.5 -19q0 -10 7 -17.5t19 -7.5h48v-48q0 -11 7 -18.5t18 -7.5q26 0 26 26v48h48q10 0 17.5 7t7.5 18q-2 11 -9 18.5t-16 7.5zM330 704h188q11 0 18.5 7t7.5 19q0 10 -7 17.5t-19 7.5h-188
q-11 0 -18.5 -7t-7.5 -18.5t7.5 -18.5t18.5 -7zM886 154h-524q-21 0 -40 15.5t-24 35.5l-93 547q-7 39 -39.5 66t-72.5 27h-23q-10 0 -17.5 -7t-7.5 -19q0 -10 7 -17.5t18 -7.5h23q22 0 40.5 -15t23.5 -37l93 -547q7 -39 39 -66t73 -27h524q11 0 18.5 7.5t7.5 18.5
q0 10 -8 18t-18 8z" />
    <glyph glyph-name="jifen1" unicode="&#xe653;" 
d="M509 395q128 0 232 25.5t163 70t59 99t-59 99t-163 70t-232 25.5t-232 -25.5t-163 -70t-59 -99t59 -99t163 -70t232 -25.5zM509 735q86 0 163.5 -13t129.5 -34t82 -47t30 -51.5t-30 -51.5t-82 -47t-129.5 -34t-163.5 -13t-163 13t-129 34t-82.5 47t-30.5 51.5t30.5 51.5
t82.5 47t129 34t163 13zM509 189q127 0 231 25t163 69.5t59 98.5q0 43 -39 81v0v0l-0.5 0.5l-0.5 0.5v0q-7 6 -15 6q-9 0 -15.5 -6.5t-6.5 -16.5q0 -9 7 -16v0q23 -24 23 -49q0 -26 -30 -52t-82.5 -47t-129.5 -34t-163.5 -13t-164 13t-129.5 34t-82.5 47t-30.5 52
q0 28 24 49v0.5t0.5 0.5h0.5v0v0q6 7 6 15q0 10 -6.5 16.5t-16 6.5t-15.5 -7h-1q-39 -38 -39 -81q0 -54 59 -98.5t163 -69.5t231 -25zM923 258l-0.5 0.5l-0.5 0.5v0q-6 6 -15 6t-15.5 -7t-6.5 -16t7 -16v0q24 -24 24 -49q0 -26 -30.5 -52t-82.5 -47t-129.5 -34t-164 -13
t-164 13t-129.5 34t-82.5 47t-30.5 52q0 28 24 49l0.5 0.5l0.5 0.5v0v0v0q6 7 6 15q0 10 -6.5 16.5t-16 6.5t-15.5 -7v0q-39 -38 -39 -81q0 -54 58.5 -98.5t162.5 -69.5t231.5 -25t231 25t162.5 69.5t59 98.5q0 43 -39 81v0v0z" />
    <glyph glyph-name="shouye" unicode="&#xe607;" 
d="M970 394l-119 112l-323 300q-16 16 -32 0l-314 -297q-4 -5 -9 -10l-119 -112q-16 -16 0 -32q8 -7 16.5 -7t15.5 7l84 80v-393q0 -37 27 -63.5t65 -26.5h84q29 0 49.5 19.5t20.5 47.5v218h99h99v-218q0 -26 21 -46.5t50 -20.5h83q39 0 66 26t27 64v396l80 -73q16 -16 32 0
q5 4 4.5 13t-7.5 16zM810 38q0 -19 -13 -31.5t-32 -12.5h-83q-10 0 -16.5 6t-6.5 16v240q0 10 -6.5 16t-15.5 6h-122h-121q-10 0 -16.5 -6t-6.5 -16v-240q0 -10 -6.5 -16t-15.5 -6h-83q-20 0 -32.5 12.5t-12.5 31.5v439l294 281l295 -281v-439z" />
    <glyph glyph-name="sousuo" unicode="&#xe608;" 
d="M966 -29l-230 227q96 107 96 256q0 107 -52.5 197t-142.5 142t-195 52q-107 0 -197 -52.5t-142 -142.5t-52 -196t52.5 -196t142.5 -142t196 -52q149 0 256 96l230 -227q7 -7 19 -7t19 7q10 9 10 20t-10 18zM102 454.5q0 91.5 45 169.5t123.5 124t171.5 46t171 -45.5
t123 -123.5t45 -171q0 -66 -24.5 -126.5t-68.5 -106.5q-2 0 -3.5 -1.5t-2.5 -1.5q-4 -4 -4 -7q-46 -44 -106.5 -68.5t-126.5 -24.5q-93 -1 -172 44t-125 123t-46 169.5z" />
    <glyph glyph-name="xiangshangjiantou" unicode="&#xe60a;" 
d="M966 227l-435 432q-7 7 -17.5 7t-17.5 -7l-442 -432q-7 -7 -7 -17.5t7.5 -17.5t17.5 -7t18 7l425 416l416 -416q7 -7 17.5 -7t18 7t7.5 17.5t-8 17.5z" />
    <glyph glyph-name="xiangxiajiantou" unicode="&#xe60b;" 
d="M966 573q-7 7 -17.5 7t-17.5 -7l-416 -416l-425 416q-8 7 -18 7t-17.5 -7t-7.5 -17.5t7 -17.5l442 -432q7 -8 17.5 -8t17.5 8l435 432q15 20 0 35z" />
    <glyph glyph-name="goumai" unicode="&#xe67f;" 
d="M510 832q-91 0 -174 -35.5t-143 -95.5t-95.5 -143t-35.5 -174t35.5 -174t95.5 -143t143 -95.5t174 -35.5t174 35.5t143 95.5t95.5 143t35.5 174t-35.5 174t-95.5 143t-143 95.5t-174 35.5v0zM798 96q-56 -57 -129 -88q-76 -32 -159 -32t-158 32q-73 31 -129.5 87.5
t-87.5 130.5q-32 75 -32 158q0 111 54.5 204.5t148.5 148.5t204.5 55t204.5 -55t148.5 -148.5t54.5 -204.5q0 -83 -32 -158q-31 -74 -88 -130v0zM359 524h39v-105q0 -82 -9 -133q65 -68 102 -105l-32 -28q-14 16 -45 51q-19 21 -36 41q-15 -56 -88 -116q-5 6 -29 30
q60 41 79 92q19 45 19 153v120v0zM292 605h175v-150q50 77 77 182l42 -11q-13 -34 -26 -70h197q0 -289 -2 -327q0 -94 -102 -90l-83 1q-2 12 -5 26t-3 17q46 -6 91 -6q64 -4 64 58q1 20 1 284h-173q-18 -43 -41 -83q-22 12 -37 17v-167h-37v282h-101v-287h-37v324v0z
M604 393l37 11q10 -39 30 -99q11 -39 17 -58l-41 -11l-7 30q-4 0 -25 -1t-36 -3q-28 -3 -37 -4q-22 -3 -45 -9l-17 35q17 10 26 30q30 75 53 167l42 -9q-31 -97 -62 -177q46 4 90 6q-8 44 -25 92v0z" />
    <glyph glyph-name="sshouqing" unicode="&#xe614;" 
d="M512 802q113 0 209.5 -56t152.5 -152.5t56 -209.5t-56 -209.5t-152.5 -152.5t-209.5 -56t-209.5 56t-152.5 152.5t-56 209.5t56 209.5t152.5 152.5t209.5 56zM512 832q-91 0 -174 -35.5t-143 -95.5t-95.5 -143t-35.5 -174t35.5 -174t95.5 -143t143 -95.5t174 -35.5
t174 35.5t143 95.5t95.5 143t35.5 174t-35.5 174t-95.5 143t-143 95.5t-174 35.5v0zM206 394q-14 -26 -32 -50l-13 23q44 62 54 126h26q-4 -18 -8 -34l87 19q-11 16 -24 28l25 10q11 -14 24 -33l102 22l4 -21l-106 -23l5 -25l91 19l4 -20l-91 -19l5 -25l92 20l5 -20l-92 -20
l5 -26l113 24l4 -22l-258 -55zM325 430l-5 26l-95 -20l-1 -5l4 -21zM335 386l-6 24l-96 -20l5 -25zM469 315l22 -102l-25 -5l-3 17l-186 -40l4 -17l-25 -5l-22 102zM344 339l-5 27l-97 -21l6 -26zM272 208l186 39l-9 41l-186 -39zM499 533l73 15l-4 17l25 5l3 -17l60 13
l3 -18l-59 -13l4 -16l50 10l3 -17l-130 -27l-4 16l56 12l-3 17l-73 -16zM561 423q-3 -25 -17 -48l-20 12q19 27 13 60l-5 23l129 28l10 -51zM613 379q-7 -15 -17 -28l-24 8q27 33 35 68h25q-3 -11 -7 -23l166 36l5 -23l-88 -18l7 -32l133 28l5 -22l-134 -29l9 -41l80 17
l-6 29l25 5l13 -64l-24 -5l-3 13l-186 -39l3 -14l-25 -5l-14 63l25 5l6 -27l81 17l-9 41l-144 -31l-5 23l145 30l-7 32zM593 467l-36 -7l2 -8q1 -7 2 -13l36 8zM616 451l31 6l-4 21l-31 -7zM766 602l6 -28q1 -8 8 -7l26 6l4 -18l-32 -7q-21 -4 -25 17l-3 14l-45 -9
q3 -14 0 -26q-5 -12 -19 -24l-17 10q11 13 15 24q2 10 -3 30zM803 542l3 -14q-8 -26 -31 -48q26 -3 61 -2l-6 -21q-44 0 -74 7q-26 -19 -62 -34l-14 16q29 12 53 25q-27 11 -40 29l-13 -3l-4 18zM713 504q10 -13 38 -20q22 17 31 35z" />
    <glyph glyph-name="pinglun2" unicode="&#xe634;" horiz-adv-x="1028" 
d="M924 40h-264l-112 -133l-112 133h-223q-37 0 -63 26t-26 63v533q0 36 26 62t63 26h711q36 0 62 -26t26 -62v-533q0 -37 -26 -63t-62 -26v0zM968 662q0 18 -13 31t-31 13h-711q-18 0 -31 -13t-13 -31v-533q0 -19 13 -32t31 -13l252 1l83 -116l83 116l293 -1q18 0 31 13
t13 32v533v0zM790 373q-18 0 -31 13t-13 31.5t13 31.5t31.5 13t31.5 -13t13 -31.5t-13 -31.5t-32 -13v0zM568 373q-18 0 -31 13t-13 31.5t13 31.5t31.5 13t31.5 -13t13 -31.5t-13 -31.5t-32 -13v0zM346 373q-18 0 -31 13t-13 31.5t13 31.5t31.5 13t31.5 -13t13 -31.5
t-13 -31.5t-32 -13v0zM768 817h-0.5h-0.5h-665q-18 0 -31 -13t-13 -31v-511v0q0 -9 -6.5 -15.5t-16 -6.5t-16 6.5t-6.5 15.5v0v511q0 36 26 62t63 26h666v0q9 0 15.5 -6.5t6.5 -15.5t-6.5 -15.5t-15.5 -6.5v0zM768 817z" />
    <glyph glyph-name="pinglun1" unicode="&#xe618;" 
d="M512 800v18q-90 0 -171 -28.5t-143 -80.5q-62 -51 -96.5 -120t-34.5 -145q-1 -140 97 -234q95 -92 254 -112q3 -1 7 -2q8 -2 14 -3q6 0 10 -3q6 -5 10 -24q2 -10 3.5 -33.5t2.5 -31.5q3 -21 9 -32q5 -9 13 -14t19 -5q4 0 9.5 1t12.5 5q21 10 68 43q62 46 141 110t107 94
q46 48 76 106q37 71 37 135q0 76 -34.5 145t-96.5 120q-62 52 -143 80.5t-171 28.5v-18v-18q84 0 159 -26.5t132 -73.5q56 -47 87.5 -108.5t31.5 -129.5q0 -55 -33 -118q-28 -54 -71 -99q-18 -19 -65 -59q-71 -60 -149 -118q-38 -28 -64 -46q-14 -9 -22 -14q-3 -1 -7 -3
l-2 -1h-1l1 -1l-1 1v0v-1v1h-2h-1v-1h1l-1 1v-1h1v1q-2 1 -3 6q-3 8 -4 31q-4 46 -8 62q-6 18 -16 29q-13 14 -33 15q-4 0 -7 1q-6 2 -13 3q-147 19 -233 102q-87 84 -87 209q0 68 31 129.5t88 108.5t132 73.5t159 26.5v18v0zM510 330q-5 0 -10 1q-22 1 -42.5 9t-33.5 16.5
t-26 20t-16.5 15.5t-6.5 8q-5 6 -4 13.5t7 12t13 3.5t12 -7v0q5 -7 13 -15t34 -23.5t52 -17.5q61 -4 122 58q5 5 12 5t12.5 -5.5t5.5 -12.5t-5 -13q-68 -68 -139 -68z" />
    <glyph glyph-name="yishouqing" unicode="&#xe615;" 
d="M963 444l-698 -436l-204 327l697 436zM269 26l676 422l-191 305l-675 -422zM332 315l-30 48l-94 -59q-5 -3 -7 -7l-9 6q5 2 11 5l94 59v11q0 4 2 5.5t9 0.5h13q6 -1 7.5 -3.5t-4.5 -9.5l26 -43q4 -6 6 -8l3 -5q1 -2 0 -5t-6 -9t-6 -7t-3 2l-8 12l-81 -51l39 -63
q4 -6 8 -6.5t22 9.5t34 20t29.5 19.5t15.5 12t2.5 6.5t-1 10t-6 15.5t-11.5 24.5l5 4q11 -19 19.5 -28.5t16.5 -8.5q4 0 5.5 -2t1 -11.5t-6 -16t-25 -19t-48.5 -30.5t-40 -23t-19.5 -5t-16.5 13l-49 78q-8 14 -14 22q15 6 22.5 8t8.5 1q1 -2 -4 -10l7 -13l82 51v0zM421 401
q-4 -30 -13 -51l-5 1q12 55 -2 113q9 2 18.5 3.5t11 -0.5t-1.5 -4.5t-4 -6.5l-1 -20l45 28q-3 2 -5 4q-7 7 -13 10t-16 7v4q37 9 43 0q3 -6 1 -19l33 21v16q0 4 2.5 5t16.5 -0.5t15.5 -4t-3.5 -6.5l-59 -37l10 -17l28 17l1 14q0 3 2 4t13 -1t12.5 -4t-4.5 -6l-48 -30l11 -17
l30 19l1 14q0 3 1.5 4t13.5 -1t13.5 -4t-5.5 -6l-51 -32l12 -18l40 25v15q0 3 2.5 4.5t15.5 0t14.5 -4t-5.5 -6.5l-121 -76q2 -4 1.5 -5.5t-6 -7.5t-7 -7t-1.5 1q-10 20 -20 36l-16 26v0zM484 342l79 49l1 11q0 2 1.5 3t10.5 1q9 1 12 1t4 -1.5t-3 -11.5l19 -31q2 -3 3 -5
l3 -4q2 -2 -3 -8t-9 -9q-1 -1 -3 1l-8 13l-84 -52l6 -9v-2t-2.5 -4.5t-5.5 -6.5t-4.5 -3.5t-2.5 1.5q-3 7 -8 15l-19 32l-10 14q13 5 23 6zM426 428l11 -17l40 25l-11 17zM440 405l11 -17l41 25l-11 18zM455 382l11 -18l41 25l-12 19zM587 357l-18 30l-84 -52l18 -30z
M622 523l43 26v7q0 2 1.5 2.5t10 0.5t9.5 -1.5t-2 -7.5l7 -11l7 -11q1 -2 1 -3.5t-3 -5t-5.5 -5t-3.5 0.5l-4 5l-44 -28q5 -12 4 -23.5t-12 -34.5l-5 1q5 20 3 33.5t-15 35.5l-10 15q8 3 18 4zM632 568l8 -13l15 10l1 8q0 3 1 4q2 1 11 -1t10 -3.5t-3 -3.5l-68 -43
q-5 -3 -7 -7l-9 7l10 5l23 15l-8 13l-34 -22q-5 -3 -8 -7l-9 7q5 2 11 5l36 23q-8 13 -14 22q24 9 26 5q1 -1 -2 -8l6 -9l17 10l2 13q0 2 1.5 3t12.5 -1t12 -3q1 -2 -4 -5zM739 440l-20 31l-65 -41q-6 -3 -8 -6l-9 6q5 2 11 5l67 42l-9 15l-32 -20q-2 -9 -7 -23h-5
q4 21 1 52q19 3 20 1t-1.5 -4.5t-5.5 -16.5l67 42l2 14q1 3 2 3.5t12 -1.5t12 -4t-3 -4l-45 -29l9 -14l52 32l1 12q1 3 2.5 4t14 -0.5t13 -3t-3.5 -3.5l-75 -47l20 -32l32 21l-10 17q-5 8 -7 10q6 4 15 6t9.5 0.5t-1.5 -5.5l11 -17q2 -3 3 -5l3 -4q1 -2 -4 -8.5t-7 -7.5
t-3 1l-4 6l-82 -51v-7q0 -2 -1 -3q-3 -2 -20 -3q1 6 1 8.5t-3 6.5l-6 10q-5 8 -10 15q23 8 25 5q1 -2 -2 -6l12 -19zM640 525l-13 -8q6 -10 9 -18l15 9zM680 526l-11 17l-16 -10l11 -16zM688 560l-6 -1q4 15 1.5 27.5t-15.5 32.5q11 2 20 2l16 10v10q0 2 1 2.5t10 0.5t10 -1
q1 -2 -4 -11l10 -15q2 -3 3 -3.5t3 1.5q10 6 12 10q0 1 1.5 2t8 -1.5t8 -4.5t-2 -5.5t-9 -6.5t-16 -8.5t-13.5 -4t-6 5.5l-14 23l-17 -11q10 -18 9.5 -27.5t-9.5 -24.5l10 6l38 24l1 4q0 2 2 3t10.5 1.5t9.5 -1t-3 -4.5q-2 -2 -4 -11q-1 -12 -5 -22q18 4 47 20l2 -4
q-8 -6 -11 -11t-1 -11q0 -2 -2 -3.5t-15.5 -3.5t-25.5 -1q-10 -20 -35 -43l-4 3q19 22 27 42q-13 4 -27 12q-5 -3 -6 -5zM734 560q3 12 4 24l-30 -18q14 -6 26 -6z" />
    <glyph glyph-name="huiyuan" unicode="&#xe654;" 
d="M64 553l3 8q5 16 18.5 26.5t31.5 11.5q16 1 30.5 -7t22.5 -23q16 -33 -8 -62q-3 -3 -5 -6q6 -4 52.5 -32t70.5 -43q28 -18 47 -29q14 -8 21 5q66 121 142 259q-34 17 -35 50q-2 25 16 42t42.5 16t39.5 -20q18 -22 12 -45.5t-34 -42.5q22 -40 37 -67q17 -31 51.5 -93.5
t51.5 -93.5q6 -11 11 -12.5t16 4.5q30 19 87 54t72 44l3 1.5t4 2.5q-17 18 -19 39q-1 21 12 38t34 20q22 4 40 -7t24 -32q0 -1 2 -6v-20q-14 -45 -59 -45q-3 -9 -3 -10q-16 -54 -47 -160t-46 -159q-3 -11 -8 -14.5t-15 -3.5h-536q-11 0 -15.5 3.5t-8.5 14.5q-12 43 -37 129
t-38 130q-4 13 -11 37.5t-10 32.5q-36 0 -52 30q-1 0 -7 16v19v0v0zM64 553zM510 85h251q16 0 28 -10.5t14 -26.5t-7.5 -29t-25.5 -16q-3 -1 -9 -1h-501q-14 0 -25.5 7.5t-15.5 20.5t0 26.5t15 20.5q14 8 28 8h248v0v0v0zM510 85z" />
    <glyph glyph-name="dianzan" unicode="&#xe622;" 
d="M172 427q11 0 19 8t8 19.5t-8 19.5t-19 8h-0.5h-0.5h-65h-5q-15 0 -26 -11t-11 -27v-453q0 -15 11 -26t26 -11h2h4h64v0v0h1v0q11 1 18 8.5t7 18t-7 18t-18 7.5v1h-53l1 420h52v0v0zM942 466q-28 46 -85 48h-6l-215 1q24 69 24 135q0 44 -9 87l-1 -1q-8 37 -37.5 61
t-67.5 24q-44 0 -72 -32t-28 -78v-10q-3 -84 -62.5 -146t-142.5 -71v-58l-1 -232v-240h11h523h9q23 0 50 17q25 16 39 44q4 5 5 12l81 360q1 6 1 12q2 37 -16 67v0v0zM907 411l-86 -384v0q-5 -10 -14 -16q-6 -4 -14 -5h-5h-498v426q80 36 126 74.5t71 106.5v0q6 18 9 35
q3 13 4 28.5t1 23.5v9q-3 26 13 40.5t34 14.5q19 -1 35.5 -20t16.5 -35q6 -29 6 -59q0 -18 -1 -33t-2 -21l-2 -6v0q-9 -48 -32 -91v0q-3 -8 -3 -17q0 -14 10.5 -18t29.5 -4l250 -1h15v0q21 1 32 -18q9 -14 4 -30v0v0v0zM250 -46v0v0v0v0v0v0zM250 -46z" />
    <glyph glyph-name="fengefu" unicode="&#xe611;" 
d="M536 289q27 -27 80.5 -82t80.5 -83q18 -17 0.5 -33.5t-35.5 -1.5q-24 23 -71 72.5t-71 72.5q-24 -25 -73 -74.5t-73 -74.5q-11 -11 -25 -6.5t-17 17t7 24.5l165 166q3 8 14.5 9t17.5 -6zM500 479l-165 165q-11 11 -6.5 25t17 17t24.5 -7q24 -25 73 -74.5t73 -74.5
q24 23 71 72.5t71 72.5q11 12 24.5 7t17 -17.5t-6.5 -24.5q-27 -28 -80.5 -83t-80.5 -82q-3 -4 -14.5 -3t-17.5 7zM1024 380q0 -9 -18.5 -16.5t-44.5 -7.5h-894q-26 0 -44.5 7.5t-18.5 16.5v0q0 9 18.5 16.5t44.5 7.5h894q26 0 44.5 -7.5t18.5 -16.5v0z" />
    <glyph glyph-name="shalong" unicode="&#xe61c;" 
d="M912 460q-1 7 -6 13l-266 321q-15 18 -40 18h-177q-24 0 -40 -18l-230 -278l-35 -43q-5 -6 -6 -14v-1v-3q0 -29 20.5 -50t50.5 -21q27 0 47 18q20 -18 47 -18t47 18q20 -18 47 -18t47 18q20 -18 47 -18t47 18q20 -18 47 -18t47 18q20 -18 47 -18t47 18q20 -18 47 -18
t47 18q20 -18 47 -18q30 0 50.5 21t20.5 50v5zM841 432q-9 0 -16 6.5t-7 16.5t-7 17t-17 7t-17 -7t-7 -17t-7 -16.5t-16 -6.5t-16 6.5t-7 16.5v0v0v0q0 10 -7 17t-17 7t-17 -7t-7 -17t-7 -16.5t-16 -6.5t-16 6.5t-7 16.5v0v0v0q0 10 -7 17t-17 7t-17 -7t-7 -17t-7 -16.5
t-16 -6.5t-16 6.5t-7 16.5v0v0v0q0 10 -7 17t-17 7t-17 -7t-7 -17t-7 -16.5t-16.5 -6.5t-15.5 7q-7 6 -7 15v1q0 10 -7 17t-17 7v0q-10 0 -17 -7t-7 -17v0v0q0 -10 -7 -16.5t-16.5 -6.5t-15.5 7q-7 6 -7 15v1q0 10 -7 17t-17 7v0q-10 0 -17 -7t-7 -17v0v0q0 -10 -7 -16.5
t-16.5 -6.5t-15.5 7q-7 6 -7 15v1q0 10 -7 17t-17 7v0q-10 0 -17 -7t-7 -17v0v0q0 -10 -7 -16.5t-16 -6.5q-18 0 -22 17l259 314q2 1 3 1h177q2 0 3 -1l231 -278l29 -36q-4 -17 -22 -17zM874.5 314.5q-8.5 5.5 -18 4t-15.5 -9.5l-96 -140h-209v184q0 10 -7 17t-17 7t-17 -7
t-7 -17v-184h-224q-10 0 -17 -7t-7 -17t7 -17t17 -7h8l-31 -136q-2 -10 3 -18t15 -11h5q20 0 24 19l33 146h167v-141q0 -10 7 -17t17 -7t17 7t7 17v141h144l33 -146q5 -19 24 -19h5q10 3 15.5 11t2.5 18l-31 136h29q12 0 20 11l103 149q5 8 3.5 18t-10 15.5z" />
    <glyph glyph-name="shouye1" unicode="&#xe60c;" 
d="M512 845q107 0 183 -76t76 -184q0 -107 -76 -183q-29 -30 -66 -48q110 -28 195 -106q63 -58 102 -136t47 -166q0 -8 -6 -15t-15 -8q-8 -1 -15 5t-8 15q-7 79 -42 149.5t-92 122.5q-121 111 -283 111q-80 0 -153 -29t-130 -82q-57 -52 -92 -122.5t-42 -149.5q-1 -9 -8 -15
t-16 -5t-14.5 8t-5.5 15q8 88 47 166t102 136q85 78 194 106q-36 19 -65 48q-76 76 -76 183q0 108 76 184t183 76v0zM664 738q-62 63 -152 63q-89 0 -153 -63q-62 -63 -62 -153q0 -89 62 -153q64 -62 153 -62t152 62q63 64 63 153q0 90 -63 153v0z" />
    <glyph glyph-name="jifen" unicode="&#xe67d;" 
d="M181 765q-51 -29 -51 -63v-64q0 -34 51 -63.5t139 -46.5t192 -17q103 0 191 17t139.5 46.5t51.5 63.5v64q0 34 -51 63t-139.5 46.5t-191.5 17.5t-191.5 -17.5t-139.5 -46.5v0zM130 340v-84q0 -34 51 -63.5t139.5 -46.5t191.5 -17t192 17q87 17 138.5 46.5t51.5 63.5v84
q-59 -41 -161.5 -62.5t-220.5 -21.5t-220.5 21.5t-161.5 62.5v0zM130 149v-84q0 -34 51 -63.5t140 -46.5q87 -17 191 -17q103 0 191.5 17t139.5 46.5t51 63.5v84q-59 -41 -161.5 -62.5t-220.5 -21.5t-220.5 21.5t-161.5 62.5v0zM130 531v-84q0 -34 51 -63.5t139.5 -46.5
t191.5 -17t191 17t139.5 46.5t51.5 63.5v84q-59 -41 -161.5 -62.5t-220.5 -21.5t-220 21q-103 22 -162 63v0z" />
    <glyph glyph-name="tongzhi" unicode="&#xe61b;" 
d="M956 72q-3 62 -31 116.5t-75 91.5v230q0 99 -61 175t-153 96v5q0 45 -31.5 77.5t-75.5 32.5v0q-44 0 -75.5 -32.5t-31.5 -77.5v-5q-92 -20 -152.5 -96t-60.5 -175v-230q-48 -37 -76 -91.5t-31 -116.5h107v-1h641v1h106v0v0zM507 -128h26q52 0 91 35.5t45 88.5h-279
q6 -53 45 -88.5t90 -35.5h-18v0z" />
    <glyph glyph-name="icon" unicode="&#xe623;" 
d="M1019 85h-90v65h25v206l-137 159h-176v183h-471v-79h-65v144h601v-183h141l172 -200v-295zM395 600q0 -14 -10 -23.5t-25 -9.5h-320q-14 0 -24.5 9.5t-10.5 23.5v0q0 13 10.5 22.5t24.5 9.5h320q15 0 25 -9.5t10 -22.5v0v0zM395 452q0 -14 -10 -23.5t-25 -9.5h-320
q-14 0 -24.5 9.5t-10.5 23.5v0q0 13 10.5 22.5t24.5 9.5h320q15 0 25 -9.5t10 -22.5v0v0zM460 302q0 -13 -12 -22.5t-28 -9.5h-374q-17 0 -29 9.5t-12 22.5v0q0 14 12 23.5t29 9.5h374q16 0 28 -9.5t12 -23.5v0v0zM706 85h-227v65h162v397h65v-462zM820 2q-50 0 -85.5 35.5
t-35.5 85.5t35.5 85.5t85.5 35.5t85.5 -35.5t35.5 -85.5t-35.5 -85.5t-85.5 -35.5v0zM820 184q-25 0 -43 -18t-18 -43t18 -43t43 -18t43 18t18 43t-18 43t-43 18v0zM369 2q-50 0 -85.5 35.5t-35.5 85.5t35.5 85.5t85.5 35.5t85.5 -35.5t35.5 -85.5t-35.5 -85.5t-85.5 -35.5
v0zM369 184q-25 0 -43 -18t-18 -43t18 -43t43 -18t43 18t18 43t-18 43t-43 18v0zM87 156h167v-65h-167v65zM153 140q0 -13 -9.5 -23t-23.5 -10v0q-14 0 -23.5 10t-9.5 23v41q0 13 9.5 23t23.5 10v0q14 0 23.5 -10t9.5 -23v-41v0zM755 404v-72h130l-58 72h-72z" />
    <glyph glyph-name="icongotop" unicode="&#xe60d;" 
d="M246 280q-11 0 -19 8t-8 19t8 19l266 266q8 8 19 8t19 -8l266 -266q8 -8 8 -19t-8 -19t-19 -8t-19 8l-247 247l-247 -247q-8 -8 -19 -8zM512 57q-11 0 -19 8t-8 19v489q0 11 8 19t19 8t19 -8t8 -19v-489q0 -11 -8 -19t-19 -8zM841 657h-658q-12 0 -19.5 8t-7.5 19t7.5 19
t19.5 8h658q12 0 19.5 -8t7.5 -19t-7.5 -19t-19.5 -8z" />
    <glyph glyph-name="brithday" unicode="&#xe61d;" 
d="M310.5 640q22.5 0 39 16.5t16.5 38.5q0 13 -14 45t-27 57l-14 26q-55 -99 -55 -128q0 -22 16 -38.5t38.5 -16.5zM731.5 640q22.5 0 38.5 16.5t16 38.5q0 13 -13.5 45t-27.5 57l-14 26q-54 -99 -54 -128q0 -22 16 -38.5t38.5 -16.5zM530.5 658q22.5 0 38.5 15.5t16 37.5
q0 12 -13.5 45t-27.5 59l-14 26q-55 -102 -55 -130q0 -22 16.5 -37.5t39 -15.5zM201 201q41 0 81 21.5t65 51.5q30 -29 73 -47t92 -18t92 18t73 47q25 -30 65 -51.5t81 -21.5q67 0 106.5 42.5t39.5 103.5q0 55 -29 93t-86 46q-31 5 -34 5l-34 3v109h-109v-109l-92 -1v110
h-110v-109l-109 -1v110h-110v-110l-45 -3q-2 0 -32 -5q-58 -9 -91 -47t-33 -91q0 -61 39.5 -103.5t106.5 -42.5zM677 219q-28 -28 -71.5 -45t-93.5 -17t-93 16.5t-72 45.5q-25 -28 -67 -45t-91 -17q-43 0 -74 16t-60 46v-146q0 -64 39 -105t107 -41h622q67 0 104 40t42 106
v146q-29 -30 -60 -46t-74 -16q-49 0 -90.5 17t-67.5 45z" />
    <glyph glyph-name="right1" unicode="&#xe620;" 
d="M443 -124q-108 137 -227 237t-211 134l283 176l138 -273q4 11 13 31.5t39 82t63.5 120t85.5 136.5t106.5 143t125.5 127.5t143 99.5q-2 -28 -9 -93t-9 -100t6 -90t29 -105q-55 -12 -140 -84.5t-168 -169t-156 -197.5t-112 -175v0v0z" />
    <glyph glyph-name="zhekou" unicode="&#xe61e;" 
d="M512 796l27 -34q37 -44 96 -44q22 0 43 7l40 16l7 -43q6 -38 34.5 -66.5t66.5 -34.5l43 -7l-16 -40q-14 -36 -3.5 -75.5t40.5 -63.5l34 -27l-34 -27q-30 -24 -40.5 -63.5t3.5 -75.5l16 -40l-43 -7q-38 -6 -66.5 -34.5t-34.5 -66.5l-7 -43l-40 16q-21 7 -42 7h-1
q-60 0 -96 -44l-27 -34l-27 34q-37 44 -96 44q-22 0 -43 -7l-40 -16l-7 43q-6 38 -34.5 66.5t-66.5 34.5l-43 7l16 40q13 36 2.5 75.5t-39.5 63.5l-34 27l34 27q30 24 40 63.5t-3 75.5l-16 40l43 7q38 6 66.5 34.5t34.5 66.5l7 43l40 -16q21 -7 43 -7q59 0 96 44zM512 896
q-9 0 -16 -8l-73 -91q-11 -12 -29 -12q-6 0 -11 2l-109 41q-4 2 -8 2q-17 0 -20 -18l-18 -115q-2 -10 -10.5 -18.5t-18.5 -10.5l-115 -18q-11 -2 -15.5 -10t-0.5 -18l41 -109q4 -10 1 -21.5t-11 -18.5l-91 -73q-8 -7 -8 -16t8 -16l91 -73q8 -7 11 -18.5t-1 -21.5l-41 -109
q-4 -10 0.5 -18t15.5 -10l115 -18q10 -2 18.5 -10.5t10.5 -18.5l18 -115q3 -18 20 -18q4 0 8 2l109 41q5 2 11 2v0q18 0 29 -12l73 -91q7 -8 16 -8t16 8l73 91q11 12 29 12q6 0 11 -2l109 -41q4 -2 8 -2q17 0 20 18l18 115q2 10 10.5 18.5t18.5 10.5l115 18q11 2 15.5 10
t0.5 18l-41 109q-4 10 -1 21.5t11 18.5l91 73q8 7 8 16t-8 16l-91 73q-8 7 -11 18.5t1 21.5l41 109q4 10 -0.5 18t-15.5 10l-115 18q-10 2 -18.5 10.5t-10.5 18.5l-18 115q-3 18 -20 18q-4 0 -8 -2l-109 -41q-5 -2 -11 -2v0q-18 0 -29 12l-73 91q-7 8 -16 8zM676.5 553.5
q-9.5 9.5 -22.5 9.5t-23 -9l-281 -281q-8 -9 -8 -22t9 -22.5t23 -9.5q12 0 22 9l281 280q9 10 9 23t-9.5 22.5zM422.5 400q33.5 0 57.5 24t24 57.5t-24 57.5t-57.5 24t-57.5 -24t-24 -57.5t24 -57.5t57.5 -24zM423 518v0q15 0 26 -10.5t11 -25.5t-11 -26t-26 -11v0
q-15 1 -25.5 11.5t-10.5 25.5t10.5 25.5t25.5 10.5zM604 381q-33 0 -57 -23.5t-24 -57.5t24 -58t57.5 -24t57.5 24t24 58t-24 57.5t-58 23.5v0zM604 263v0q-15 0 -26 11t-11 26t11 25.5t26 10.5v0q15 0 25.5 -10.5t10.5 -25.5t-10.5 -25.5t-25.5 -11.5zM604 263z" />
    <glyph glyph-name="qiaquan" unicode="&#xe63c;" horiz-adv-x="1260" 
d="M607 402h259v-26h-259v26zM831 542l22 -15l-105 -147l-22 15zM607 316h259v-27h-259v27zM642 544l105 -148l-21 -15l-105 148zM1079 9h-887q-30 0 -50.5 20.5t-20.5 49.5v163l10 3q50 10 83 48t33 88q0 52 -32.5 90.5t-83.5 46.5l-10 3v162q0 30 20.5 50.5t50.5 20.5h887
q30 0 50.5 -20.5t20.5 -50.5v-165h-13q-53 -4 -89.5 -44t-36.5 -95t36 -94t90 -45h13v-158q0 -31 -20.5 -52t-50.5 -21zM147 221v-142q0 -17 13.5 -30.5t31.5 -13.5h887q18 0 31.5 13.5t13.5 30.5v134q-60 10 -99.5 56t-39.5 107t39 107t100 56v144q0 18 -13.5 31.5
t-31.5 13.5h-887q-18 0 -31.5 -13.5t-13.5 -31.5v-141q55 -14 90.5 -59t35.5 -102q-2 -57 -36.5 -101.5t-89.5 -58.5zM404 741h27v-52h-27v52zM431 153h-27v89h27v-89zM431 331h-27v90h27v-90zM431 510h-27v89h27v-89zM404 64h27v-53h-27v53zM725 402h26v-202h-26v202z" />
  </font>
</defs>
</svg>
